<svg width="24" height="36" viewBox="0 0 24 36" fill="none" xmlns="http://www.w3.org/2000/svg">
<path d="M11.8377 0.173828C5.35254 0.173828 0.0732422 5.44797 0.0732422 11.9331C0.0732422 17.6786 4.22753 22.4745 9.66509 23.4946V27.0486H6.58249C5.4936 27.0486 4.61286 27.9327 4.61286 29.0199C4.61286 30.1071 5.4936 30.9913 6.58249 30.9913H9.66509V33.2052C9.66509 34.2941 10.5493 35.1765 11.6382 35.1765C12.7271 35.1765 13.613 34.2906 13.613 33.2052V30.9913H16.8504C17.9393 30.9913 18.8217 30.1036 18.8217 29.0199C18.8217 27.9276 17.9393 27.0486 16.8504 27.0486H13.613V23.5583C19.2741 22.6982 23.5953 17.8128 23.5953 11.9331C23.5953 5.44797 18.3229 0.173828 11.8377 0.173828ZM11.8377 19.748C7.52516 19.748 4.01939 16.2405 4.01939 11.9297C4.01939 7.61887 7.52516 4.11137 11.8377 4.11137C16.1468 4.11137 19.6543 7.61887 19.6543 11.9297C19.6543 16.2405 16.1485 19.748 11.8377 19.748Z" fill="black"/>
</svg>
