<svg width="176" height="126" viewBox="0 0 176 126" fill="none" xmlns="http://www.w3.org/2000/svg">
<path d="M124.05 122.275C124.05 124.158 108.272 125.689 88.8111 125.689C69.3505 125.689 53.5723 124.164 53.5723 122.275C53.5723 120.392 69.3505 118.861 88.8111 118.861C108.272 118.861 124.05 120.392 124.05 122.275Z" fill="#EEEEEE"/>
<path d="M131.235 40.6729C131.217 40.226 131.193 39.7911 131.157 39.3561C131.038 37.7532 130.824 36.1683 130.526 34.6012C130.448 34.1841 130.359 33.7729 130.269 33.3558C129.823 31.3538 129.233 29.3875 128.512 27.4807C128.345 27.0398 128.172 26.5989 127.987 26.1699C121.767 11.2676 107.246 0 88.81 0C71.2323 0 57.2059 10.2487 50.5562 24.1201C50.3715 24.4836 50.2047 24.853 50.0438 25.2284C48.8223 27.9634 47.8868 30.8235 47.2731 33.767C47.1777 34.1781 47.0943 34.5952 47.0288 35.0183C46.6891 36.8475 46.4806 38.7006 46.4031 40.5835C46.3793 40.9828 46.3674 41.3701 46.3614 41.7752C46.3555 42.0076 46.3555 42.234 46.3555 42.4724C46.3555 49.5332 48.149 56.7788 52.0935 63.6133L85.5745 121.608C87.0165 124.104 90.6154 124.104 92.0574 121.608L125.538 63.6133C129.817 56.1949 131.568 48.2939 131.235 40.6729ZM90.2817 66.6283C77.6139 65.8239 67.5678 55.2892 67.5678 42.4068C67.5678 41.5786 67.6095 40.7683 67.693 39.9639C67.7347 39.5587 67.7823 39.1654 67.8419 38.7662C68.1756 36.5556 68.8072 34.4582 69.6831 32.4859C69.8619 32.0867 70.0466 31.6934 70.2492 31.3121C70.7676 30.2932 71.3634 29.316 72.0248 28.3983C72.281 28.0289 72.5492 27.6714 72.8292 27.3199C76.9883 22.0942 83.2507 18.6264 90.3175 18.1914C97.0566 18.6025 103.051 21.7665 107.186 26.5691C107.472 26.8968 107.74 27.2245 108.002 27.5642C108.914 28.732 109.718 29.9893 110.398 31.318C110.6 31.7053 110.791 32.0926 110.964 32.4978C111.321 33.3022 111.637 34.1245 111.911 34.9706C112.042 35.3698 112.155 35.775 112.263 36.1802C112.793 38.1703 113.073 40.2558 113.073 42.4068C113.079 55.313 102.997 65.8656 90.2817 66.6283Z" fill="#76CABB"/>
<path d="M125.54 63.6073L92.0526 121.596C90.6107 124.092 87.0117 124.092 85.5698 121.596L82.5011 116.269L116.661 72.4378C134.358 49.1161 131.558 20.6701 108.856 6.39946C102.772 2.58004 95.5622 0.238342 87.5837 0.0178767C87.9889 0.0119181 88.406 0 88.8112 0C121.452 0 141.854 35.34 125.54 63.6073Z" fill="#FF5862"/>
<path d="M90.2772 66.6282C90.2057 66.6342 90.1282 66.6401 90.0567 66.6401C89.8482 66.6461 89.6456 66.658 89.437 66.6639C89.2285 66.6699 89.0199 66.6699 88.8054 66.6699C82.1021 66.6699 76.0363 63.9528 71.6449 59.5614C67.2534 55.1699 64.5363 49.1042 64.5363 42.4008C64.5363 29.0001 75.3987 18.1377 88.7995 18.1377C89.0497 18.1377 89.3059 18.1437 89.5562 18.1496C89.8065 18.1556 90.0627 18.1675 90.307 18.1854C77.6213 18.96 67.5514 29.5066 67.5514 42.4008C67.5692 55.2891 77.6094 65.8238 90.2772 66.6282Z" fill="#FF5862"/>
<path d="M38.1895 95.8908C38.1895 96.8203 30.4315 97.5711 20.868 97.5711C11.3046 97.5711 3.54657 96.8203 3.54657 95.8908C3.54657 94.9612 11.3046 94.2104 20.868 94.2104C30.4315 94.2104 38.1895 94.9672 38.1895 95.8908Z" fill="#EEEEEE"/>
<path d="M21.5815 68.5411C21.5458 68.5411 21.51 68.5471 21.4743 68.5471C21.373 68.5471 21.2717 68.5531 21.1704 68.559C21.0691 68.559 20.9678 68.565 20.8606 68.565C17.5655 68.565 13.9308 67.8798 11.7738 65.7228C9.61682 63.5658 6.96527 59.9311 6.96527 56.636C6.96527 50.0459 14.2764 44.707 20.8606 44.707C20.9857 44.707 21.1108 44.707 21.2359 44.713C21.3611 44.713 21.4862 44.7189 21.6054 44.7309C15.3668 45.1122 10.4212 50.2961 10.4212 56.636C10.4212 62.964 15.3549 68.1419 21.5815 68.5411Z" fill="#FF5862"/>
<path d="M41.7216 55.7776C41.7157 55.5571 41.6978 55.3426 41.6859 55.1281C41.6263 54.3416 41.525 53.561 41.376 52.7924C41.3343 52.5898 41.2926 52.3812 41.2509 52.1786C41.0304 51.1955 40.7444 50.2302 40.3869 49.2887C40.3035 49.0742 40.2201 48.8538 40.1307 48.6452C37.074 41.3222 29.9356 35.7808 20.8727 35.7808C12.2329 35.7808 5.33884 40.8217 2.06761 47.6382C1.97823 47.817 1.89481 48.0017 1.81735 48.1864C1.21554 49.533 0.756733 50.9393 0.452848 52.3812C0.40518 52.5838 0.36347 52.7924 0.333678 52.9949C0.166839 53.8947 0.0655438 54.8063 0.0238341 55.7299C0.011917 55.9265 0.00595853 56.1172 0 56.3138C0 56.4271 0 56.5403 0 56.6535C0 60.1213 0.881862 63.6845 2.82434 67.0452L19.2818 95.5567C19.9909 96.7842 21.7605 96.7842 22.4696 95.5567L38.9271 67.0452C41.0245 63.4105 41.8825 59.5255 41.7216 55.7776ZM21.5877 68.5348C15.3611 68.1415 10.4155 62.9636 10.4155 56.6296C10.4155 56.2245 10.4393 55.8252 10.4751 55.426C10.4989 55.2234 10.5228 55.0328 10.5466 54.8361C10.7075 53.7517 11.0233 52.7149 11.4523 51.7496C11.5417 51.553 11.631 51.3623 11.7323 51.1716C11.9886 50.6711 12.2805 50.1885 12.6023 49.7356C12.7274 49.5509 12.8585 49.3781 12.9956 49.2053C15.0393 46.6372 18.1199 44.9331 21.5937 44.7186C24.9067 44.9211 27.8502 46.4763 29.888 48.8359C30.025 48.9968 30.1621 49.1577 30.2872 49.3245C30.7341 49.8965 31.1333 50.5162 31.467 51.1716C31.5683 51.3623 31.6577 51.553 31.747 51.7496C31.9258 52.1429 32.0807 52.5481 32.2118 52.9652C32.2773 53.1618 32.331 53.3584 32.3846 53.561C32.6468 54.5382 32.7838 55.5631 32.7838 56.6237C32.7898 62.9755 27.8382 68.1654 21.5877 68.5348Z" fill="#E6E6E6"/>
<path d="M38.9199 67.0515L22.4565 95.5571C21.7474 96.7846 19.9777 96.7846 19.2687 95.5571L17.7612 92.9354L34.5523 71.3893C43.2518 59.9251 41.8753 45.9404 30.715 38.9273C27.7238 37.0503 24.1785 35.9003 20.2578 35.7931C20.4604 35.7871 20.663 35.7871 20.8596 35.7871C36.9059 35.7871 46.9401 53.1562 38.9199 67.0515Z" fill="#D9D9D9"/>
<path d="M21.5826 68.5412C21.5469 68.5412 21.5111 68.5472 21.4754 68.5472C21.3741 68.5472 21.2728 68.5532 21.1715 68.5591C21.0702 68.5591 20.9689 68.5591 20.8617 68.5591C17.5666 68.5591 14.5873 67.2244 12.4244 65.0674C10.2674 62.9104 8.93268 59.9252 8.93268 56.6301C8.93268 50.04 14.2715 44.7012 20.8617 44.7012C20.9868 44.7012 21.1119 44.7012 21.237 44.7071C21.3622 44.7071 21.4873 44.7131 21.6065 44.725C15.3679 45.1064 10.4223 50.2903 10.4223 56.6301C10.4223 62.9641 15.356 68.142 21.5826 68.5412Z" fill="#D9D9D9"/>
<path d="M172.215 100.878C172.215 101.808 164.457 102.558 154.894 102.558C145.324 102.558 137.572 101.808 137.572 100.878C137.572 99.9485 145.33 99.1978 154.894 99.1978C164.457 99.2037 172.215 99.9545 172.215 100.878Z" fill="#EEEEEE"/>
<path d="M155.607 73.5226C155.571 73.5226 155.536 73.5286 155.5 73.5286C155.399 73.5286 155.297 73.5345 155.196 73.5405C155.095 73.5405 154.994 73.5464 154.886 73.5464C151.591 73.5464 147.956 72.8612 145.8 70.7042C143.643 68.5472 140.991 64.9125 140.991 61.6175C140.991 55.0273 148.302 49.6885 154.886 49.6885C155.011 49.6885 155.137 49.6885 155.262 49.6944C155.387 49.6944 155.512 49.7004 155.631 49.7123C149.393 50.0937 144.447 55.2776 144.447 61.6175C144.441 67.9514 149.381 73.1293 155.607 73.5226Z" fill="#FF5862"/>
<path d="M175.747 60.7654C175.741 60.5449 175.723 60.3304 175.711 60.1159C175.652 59.3294 175.551 58.5488 175.402 57.7802C175.36 57.5776 175.318 57.369 175.276 57.1664C175.056 56.1833 174.77 55.218 174.412 54.2765C174.329 54.062 174.246 53.8416 174.156 53.633C171.1 46.31 163.961 40.7686 154.898 40.7686C146.258 40.7686 139.364 45.8095 136.093 52.626C136.004 52.8048 135.92 52.9895 135.843 53.1742C135.241 54.5208 134.782 55.927 134.478 57.369C134.431 57.5716 134.389 57.7802 134.359 57.9827C134.192 58.8825 134.091 59.7941 134.049 60.7177C134.037 60.9143 134.032 61.105 134.026 61.3016C134.026 61.4149 134.026 61.5281 134.026 61.6413C134.026 65.1091 134.907 68.6723 136.85 72.033L153.307 100.545C154.016 101.772 155.786 101.772 156.495 100.545L172.953 72.033C175.044 68.3982 175.908 64.5133 175.747 60.7654ZM155.607 73.5226C149.381 73.1293 144.441 67.9514 144.441 61.6174C144.441 61.2123 144.465 60.813 144.501 60.4138C144.524 60.2112 144.548 60.0206 144.572 59.8239C144.733 58.7395 145.049 57.7027 145.478 56.7374C145.567 56.5408 145.657 56.3501 145.758 56.1594C146.014 55.6589 146.306 55.1763 146.628 54.7234C146.753 54.5387 146.884 54.3659 147.021 54.1931C149.065 51.625 152.145 49.9209 155.619 49.7063C158.932 49.9089 161.876 51.4641 163.914 53.8237C164.051 53.9846 164.188 54.1455 164.313 54.3123C164.76 54.8843 165.159 55.504 165.493 56.1594C165.594 56.3501 165.683 56.5408 165.773 56.7374C165.951 57.1307 166.106 57.5359 166.237 57.953C166.303 58.1496 166.357 58.3462 166.41 58.5488C166.672 59.526 166.809 60.5509 166.809 61.6115C166.815 67.9633 161.864 73.1472 155.607 73.5226Z" fill="#E6E6E6"/>
<path d="M172.941 72.0388L156.477 100.544C155.768 101.772 153.999 101.772 153.29 100.544L151.782 97.9227L168.573 76.3766C177.273 64.9124 175.896 50.9278 164.736 43.9146C161.745 42.0376 158.199 40.8876 154.279 40.7804C154.481 40.7744 154.684 40.7744 154.881 40.7744C170.933 40.7685 180.961 58.1435 172.941 72.0388Z" fill="#D9D9D9"/>
<path d="M155.608 73.5227C155.573 73.5227 155.537 73.5287 155.501 73.5287C155.4 73.5287 155.298 73.5346 155.197 73.5406C155.096 73.5406 154.995 73.5406 154.887 73.5406C151.592 73.5406 148.613 72.2059 146.45 70.0489C144.293 67.8919 142.958 64.9067 142.958 61.6116C142.958 55.0215 148.297 49.6826 154.887 49.6826C155.012 49.6826 155.138 49.6826 155.263 49.6886C155.388 49.6886 155.513 49.6945 155.632 49.7065C149.394 50.0878 144.448 55.2717 144.448 61.6116C144.442 67.9515 149.382 73.1294 155.608 73.5227Z" fill="#D9D9D9"/>
<path d="M133.934 109.453C133.934 109.912 130.115 110.281 125.396 110.281C120.677 110.281 116.857 109.912 116.857 109.453C116.857 108.994 120.677 108.625 125.396 108.625C130.115 108.625 133.934 108.994 133.934 109.453Z" fill="#EEEEEE"/>
<path d="M125.754 95.9742C125.736 95.9742 125.718 95.9742 125.7 95.9742C125.653 95.9742 125.599 95.9802 125.551 95.9802C125.504 95.9802 125.45 95.9802 125.396 95.9802C123.77 95.9802 121.982 95.6465 120.921 94.5799C119.855 93.5134 118.55 91.7258 118.55 90.1051C118.55 86.8577 122.149 84.23 125.396 84.23C125.456 84.23 125.521 84.23 125.581 84.23C125.641 84.23 125.706 84.2359 125.766 84.2359C122.691 84.4266 120.254 86.9769 120.254 90.1051C120.254 93.2274 122.685 95.7776 125.754 95.9742Z" fill="#FF5862"/>
<path d="M135.674 89.6879C135.668 89.5807 135.662 89.4734 135.656 89.3662C135.626 88.9789 135.573 88.5916 135.501 88.2162C135.483 88.1149 135.459 88.0136 135.442 87.9123C135.334 87.4296 135.191 86.953 135.019 86.4882C134.977 86.3809 134.935 86.2737 134.893 86.1724C133.386 82.5615 129.87 79.8325 125.401 79.8325C121.141 79.8325 117.745 82.3172 116.136 85.6778C116.094 85.7672 116.053 85.8566 116.011 85.946C115.713 86.6074 115.486 87.3045 115.338 88.0136C115.314 88.1149 115.296 88.2162 115.278 88.3175C115.195 88.7584 115.147 89.2112 115.129 89.6641C115.123 89.7594 115.117 89.8548 115.117 89.9501C115.117 90.0037 115.117 90.0633 115.117 90.1169C115.117 91.827 115.552 93.5848 116.505 95.2353L124.615 109.286C124.966 109.887 125.836 109.887 126.182 109.286L134.292 95.2353C135.334 93.4478 135.757 91.5351 135.674 89.6879ZM125.753 95.9742C122.684 95.7775 120.247 93.2273 120.247 90.105C120.247 89.9024 120.259 89.7058 120.277 89.5151C120.289 89.4138 120.301 89.3245 120.313 89.2232C120.396 88.6869 120.545 88.1804 120.76 87.7037C120.801 87.6084 120.849 87.5131 120.897 87.4177C121.022 87.1734 121.165 86.9351 121.326 86.7087C121.385 86.6193 121.451 86.5299 121.522 86.4465C122.529 85.1833 124.049 84.3431 125.759 84.2359C127.392 84.3372 128.845 85.0999 129.847 86.2677C129.918 86.3452 129.978 86.4286 130.043 86.512C130.264 86.798 130.46 87.096 130.621 87.4237C130.669 87.519 130.716 87.6144 130.758 87.7097C130.848 87.9063 130.919 88.103 130.991 88.3056C131.02 88.4009 131.05 88.5022 131.074 88.5975C131.205 89.0802 131.271 89.5866 131.271 90.105C131.277 93.2333 128.834 95.7895 125.753 95.9742Z" fill="#E6E6E6"/>
<path d="M134.297 95.2413L126.188 109.291C125.836 109.893 124.966 109.893 124.615 109.291L123.87 107.998L132.146 97.3804C136.43 91.7317 135.751 84.8377 130.257 81.3817C128.786 80.4582 127.034 79.8921 125.103 79.8385C125.204 79.8385 125.3 79.8325 125.401 79.8325C133.308 79.8325 138.248 88.3949 134.297 95.2413Z" fill="#D9D9D9"/>
<path d="M125.752 95.9743C125.734 95.9743 125.716 95.9743 125.698 95.9743C125.651 95.9743 125.597 95.9803 125.55 95.9803C125.496 95.9803 125.448 95.9803 125.395 95.9803C123.774 95.9803 122.302 95.3249 121.236 94.2583C120.169 93.1917 119.514 91.7259 119.514 90.0992C119.514 86.8518 122.147 84.2241 125.389 84.2241C125.448 84.2241 125.514 84.2241 125.573 84.2241C125.633 84.2241 125.698 84.2301 125.758 84.2301C122.683 84.4208 120.246 86.971 120.246 90.0992C120.252 93.2275 122.683 95.7777 125.752 95.9743Z" fill="#D9D9D9"/>
<path d="M59.0375 108.612C59.0375 109.071 55.2181 109.44 50.499 109.44C45.7798 109.44 41.9604 109.071 41.9604 108.612C41.9604 108.153 45.7798 107.784 50.499 107.784C55.2181 107.784 59.0375 108.153 59.0375 108.612Z" fill="#EEEEEE"/>
<path d="M50.857 95.1339C50.8392 95.1339 50.8213 95.1339 50.8034 95.1339C50.7557 95.1339 50.7021 95.1399 50.6544 95.1399C50.6068 95.1399 50.5531 95.1399 50.4995 95.1399C48.8728 95.1399 47.0853 94.8062 46.0247 93.7396C44.9581 92.673 43.6532 90.8855 43.6532 89.2648C43.6532 86.0174 47.2521 83.3896 50.4995 83.3896C50.5591 83.3896 50.6246 83.3896 50.6842 83.3896C50.7438 83.3896 50.8094 83.3956 50.8689 83.3956C47.7943 83.5863 45.3573 86.1365 45.3573 89.2648C45.3514 92.387 47.7884 94.9373 50.857 95.1339Z" fill="#FF5862"/>
<path d="M60.7772 88.8417C60.7712 88.7345 60.7653 88.6272 60.7593 88.52C60.7295 88.1327 60.6759 87.7454 60.6044 87.37C60.5865 87.2687 60.5627 87.1674 60.5448 87.0661C60.4375 86.5835 60.2945 86.1068 60.1217 85.642C60.08 85.5347 60.0383 85.4275 59.9966 85.3262C58.4891 81.7153 54.9736 78.9863 50.5047 78.9863C46.2443 78.9863 42.848 81.471 41.2392 84.8316C41.1974 84.921 41.1557 85.0104 41.114 85.0998C40.8161 85.7612 40.5897 86.4524 40.4407 87.1674C40.4169 87.2687 40.399 87.37 40.3811 87.4713C40.2977 87.9122 40.25 88.3651 40.2322 88.8179C40.2262 88.9132 40.2202 89.0086 40.2202 89.1039C40.2202 89.1575 40.2202 89.2171 40.2202 89.2707C40.2202 90.9808 40.6552 92.7386 41.6086 94.3891L49.7181 108.439C50.0697 109.041 50.9396 109.041 51.2852 108.439L59.3948 94.3891C60.4316 92.6075 60.8546 90.6889 60.7772 88.8417ZM50.8562 95.1339C47.7876 94.9373 45.3505 92.3871 45.3505 89.2648C45.3505 89.0622 45.3625 88.8656 45.3803 88.6749C45.3922 88.5736 45.4042 88.4842 45.4161 88.3829C45.4995 87.8467 45.6485 87.3402 45.863 86.8635C45.9047 86.7682 45.9524 86.6728 46 86.5775C46.1251 86.3332 46.2682 86.0949 46.429 85.8684C46.4886 85.7791 46.5542 85.6897 46.6257 85.6063C47.6327 84.343 49.1521 83.5029 50.8622 83.3956C52.4948 83.4969 53.9487 84.2596 54.9497 85.4275C55.0212 85.505 55.0808 85.5884 55.1464 85.6718C55.3668 85.9578 55.5635 86.2557 55.7243 86.5835C55.772 86.6788 55.8197 86.7741 55.8614 86.8695C55.9508 87.0661 56.0223 87.2627 56.0938 87.4653C56.1236 87.5606 56.1534 87.6619 56.1772 87.7573C56.3083 88.2399 56.3738 88.7464 56.3738 89.2648C56.3738 92.393 53.9368 94.9492 50.8562 95.1339Z" fill="#E6E6E6"/>
<path d="M59.3957 94.401L51.2861 108.445C50.9346 109.047 50.0646 109.047 49.7131 108.445L48.9683 107.152L57.2447 96.5342C61.5288 90.8855 60.8496 83.9915 55.3558 80.5355C53.884 79.612 52.1322 79.0459 50.2017 78.9923C50.303 78.9923 50.3983 78.9863 50.4996 78.9863C58.4066 78.9923 63.3462 87.5547 59.3957 94.401Z" fill="#D9D9D9"/>
<path d="M50.8553 95.134C50.8374 95.134 50.8196 95.134 50.8017 95.134C50.754 95.134 50.7004 95.14 50.6527 95.14C50.5991 95.14 50.5514 95.14 50.4978 95.14C48.8771 95.14 47.4053 94.4845 46.3387 93.418C45.2722 92.3514 44.6167 90.8856 44.6167 89.2589C44.6167 86.0115 47.2504 83.3838 50.4918 83.3838C50.5514 83.3838 50.617 83.3838 50.6766 83.3838C50.7361 83.3838 50.8017 83.3898 50.8613 83.3898C47.7867 83.5804 45.3496 86.1307 45.3496 89.2589C45.3496 92.3871 47.7867 94.9374 50.8553 95.134Z" fill="#D9D9D9"/>
</svg>
