<svg width="30" height="29" viewBox="0 0 30 29" fill="none" xmlns="http://www.w3.org/2000/svg">
<path d="M28.7186 1.14619C28.7085 1.13774 28.6949 1.13097 28.6882 1.12251C28.2314 0.672564 27.5988 0.494953 27.0135 0.591371L20.244 0.67933C19.1733 0.694554 18.3174 1.57246 18.3309 2.6432C18.3444 3.71056 19.1547 4.50727 20.2931 4.55463L22.5597 4.52588L19.2426 7.84297C17.2703 6.38825 14.8954 5.60169 12.397 5.60169C9.30827 5.60169 6.40391 6.80437 4.22014 8.98814C-0.286107 13.4961 -0.286107 20.8323 4.22014 25.3402C6.40391 27.524 9.30827 28.7266 12.397 28.7266C15.4841 28.7266 18.3901 27.524 20.5739 25.3402C24.5659 21.3448 25.0277 15.1318 21.9457 10.6306L25.4286 7.1579V9.69351C25.4286 10.7642 26.298 11.6303 27.3671 11.6303C28.4412 11.6303 29.3056 10.7626 29.3056 9.69351V2.52141C29.3056 2.00718 29.0874 1.50987 28.7186 1.14619ZM17.8336 22.5999C14.9309 25.5026 9.86817 25.5026 6.96211 22.5999C3.96472 19.6042 3.96472 14.7258 6.96211 11.7284C8.41514 10.2771 10.3452 9.47699 12.3987 9.47699C14.4539 9.47699 16.3806 10.2771 17.837 11.7284C20.8327 14.7241 20.8327 19.6042 17.8336 22.5999Z" fill="white"/>
</svg>
