<svg width="24" height="36" viewBox="0 0 24 36" fill="none" xmlns="http://www.w3.org/2000/svg">
<path d="M11.8377 0.767578C5.35254 0.767578 0.0732422 6.04172 0.0732422 12.5269C0.0732422 18.2724 4.22753 23.0683 9.66509 24.0884V27.6423H6.58249C5.4936 27.6423 4.61286 28.5265 4.61286 29.6137C4.61286 30.7008 5.4936 31.585 6.58249 31.585H9.66509V33.7989C9.66509 34.8878 10.5493 35.7703 11.6382 35.7703C12.7271 35.7703 13.613 34.8844 13.613 33.7989V31.585H16.8504C17.9393 31.585 18.8217 30.6974 18.8217 29.6137C18.8217 28.5213 17.9393 27.6423 16.8504 27.6423H13.613V24.152C19.2741 23.2919 23.5953 18.4065 23.5953 12.5269C23.5953 6.04172 18.3229 0.767578 11.8377 0.767578ZM11.8377 20.3418C7.52516 20.3418 4.01939 16.8343 4.01939 12.5234C4.01939 8.21262 7.52516 4.70512 11.8377 4.70512C16.1468 4.70512 19.6543 8.21262 19.6543 12.5234C19.6543 16.8343 16.1485 20.3418 11.8377 20.3418Z" fill="black"/>
</svg>
